<svg width="48" height="48" viewBox="0 0 48 48" fill="none" xmlns="http://www.w3.org/2000/svg">
  <path d="M21.8596 45.499C20.8996 45.499 19.9397 45.2592 19.0597 44.7792C17.2797 43.7792 16.2196 41.999 16.2196 39.979V29.2792C16.2196 28.2592 15.5596 26.759 14.9396 25.979L7.33961 17.9991C6.07961 16.7391 5.09961 14.5391 5.09961 12.9191V8.27912C5.09961 5.05912 7.53965 2.53906 10.6396 2.53906H37.3196C40.3796 2.53906 42.8596 5.0191 42.8596 8.0791V12.5191C42.8596 14.6191 41.5996 17.0391 40.3996 18.2191C39.8196 18.7991 38.8596 18.7991 38.2796 18.2191C37.6996 17.6391 37.6996 16.6791 38.2796 16.0991C39.0196 15.3591 39.8596 13.6991 39.8596 12.5191V8.0791C39.8596 6.6791 38.7196 5.53906 37.3196 5.53906H10.6396C9.21965 5.53906 8.09961 6.73912 8.09961 8.27912V12.9191C8.09961 13.6591 8.69963 15.1191 9.47963 15.8991L17.1797 23.999C18.1997 25.259 19.1996 27.3792 19.1996 29.2792V39.979C19.1996 41.299 20.0996 41.939 20.4996 42.159C21.3596 42.639 22.3796 42.619 23.1796 42.139L25.9796 40.3392C26.6796 39.8992 27.5996 40.099 28.0596 40.799C28.4996 41.499 28.2996 42.419 27.6196 42.879L24.7996 44.699C23.8996 45.219 22.8796 45.499 21.8596 45.499Z" fill="white"/>
  <path d="M27.3803 37.7814C26.6203 37.7814 25.9003 37.5014 25.3803 36.9814C24.7603 36.3614 24.4803 35.4614 24.6203 34.5214L25.0003 31.8214C25.1003 31.1214 25.5203 30.3014 26.0203 29.8014L33.1003 22.7214C34.0603 21.7614 35.0003 21.2614 36.0203 21.1614C37.2603 21.0414 38.5003 21.5614 39.6603 22.7214C40.8203 23.8814 41.3403 25.1014 41.2203 26.3614C41.1203 27.3614 40.6003 28.3214 39.6603 29.2814L32.5803 36.3614C32.0803 36.8614 31.2403 37.2814 30.5403 37.3814L27.8403 37.7614C27.6803 37.7814 27.5403 37.7814 27.3803 37.7814ZM36.3603 24.1214C36.3403 24.1214 36.3203 24.1214 36.3003 24.1214C36.0203 24.1414 35.6403 24.3814 35.2203 24.8214L28.1403 31.9014C28.0803 31.9614 27.9803 32.1614 27.9803 32.2414L27.6203 34.7414L30.1203 34.3814C30.2003 34.3614 30.4003 34.2614 30.4603 34.2014L37.5403 27.1214C37.9603 26.7014 38.2203 26.3214 38.2403 26.0414C38.2803 25.6414 37.8803 25.1614 37.5403 24.8214C37.2203 24.5014 36.7603 24.1214 36.3603 24.1214Z" fill="white"/>
  <path d="M37.5794 30.7206C37.4394 30.7206 37.2996 30.7006 37.1796 30.6606C34.5396 29.9206 32.4394 27.8206 31.6994 25.1806C31.4794 24.3806 31.9394 23.5606 32.7394 23.3206C33.5394 23.1006 34.3594 23.5606 34.5794 24.3606C35.0394 26.0006 36.3394 27.3006 37.9794 27.7606C38.7794 27.9806 39.2396 28.8206 39.0196 29.6206C38.8396 30.3006 38.2394 30.7206 37.5794 30.7206Z" fill="white"/>
</svg>
