<svg width="16" height="16" viewBox="0 0 16 16" fill="none" xmlns="http://www.w3.org/2000/svg">
<g clip-path="url(#clip0_93_180)">
<mask id="mask0_93_180" style="mask-type:luminance" maskUnits="userSpaceOnUse" x="0" y="0" width="16" height="16">
<path d="M16 0H0V16H16V0Z" fill="white"/>
</mask>
<g mask="url(#mask0_93_180)">
<path d="M3.69332 13.013C3.28666 13.013 2.90666 12.873 2.63332 12.613C2.28666 12.2863 2.11999 11.793 2.17999 11.2597L2.42666 9.09965C2.47332 8.69299 2.71999 8.15299 3.00666 7.85965L8.48 2.06629C9.84666 0.619626 11.2733 0.579626 12.72 1.94629C14.1667 3.31296 14.2067 4.73963 12.84 6.18629L7.36666 11.9797C7.08666 12.2797 6.56666 12.5597 6.15999 12.6263L4.01332 12.993C3.89999 12.9997 3.79999 13.013 3.69332 13.013ZM10.62 1.93963C10.1067 1.93963 9.66 2.25963 9.20666 2.73963L3.73332 8.53965C3.59999 8.67965 3.44666 9.01299 3.41999 9.20632L3.17332 11.3663C3.14666 11.5863 3.19999 11.7663 3.31999 11.8797C3.43999 11.993 3.61999 12.033 3.83999 11.9997L5.98666 11.633C6.17999 11.5997 6.49999 11.4263 6.63332 11.2863L12.1067 5.49296C12.9333 4.61296 13.2333 3.79963 12.0267 2.66629C11.4933 2.15296 11.0333 1.93963 10.62 1.93963Z" fill="white"/>
<path d="M11.56 7.30045C11.5466 7.30045 11.5266 7.30045 11.5133 7.30045C9.4333 7.09378 7.75996 5.5138 7.43996 3.44714C7.39996 3.1738 7.58663 2.92047 7.85996 2.8738C8.1333 2.8338 8.38663 3.02047 8.4333 3.2938C8.68663 4.90714 9.9933 6.14714 11.62 6.30714C11.8933 6.33378 12.0933 6.58047 12.0666 6.85378C12.0333 7.10712 11.8133 7.30045 11.56 7.30045Z" fill="white"/>
<path d="M14 15.1665H2C1.72667 15.1665 1.5 14.9398 1.5 14.6665C1.5 14.3932 1.72667 14.1665 2 14.1665H14C14.2733 14.1665 14.5 14.3932 14.5 14.6665C14.5 14.9398 14.2733 15.1665 14 15.1665Z" fill="white"/>
</g>
</g>
<defs><clipPath id="clip0_93_180"><rect width="16" height="16" fill="white"/></clipPath></defs>
</svg>
